<?xml version="1.0" encoding="UTF-8"?>
<svg id="Layer_1" xmlns="http://www.w3.org/2000/svg" version="1.1" viewBox="0 0 103.08 110.09">
  <!-- Generator: Adobe Illustrator 30.5.1, SVG Export Plug-In . SVG Version: 2.1.4 Build 3)  -->
  <defs>
    <style>
      .st0 {
        fill: #eaae5c;
      }

      .st0, .st1 {
        fill-rule: evenodd;
      }

      .st0, .st1, .st2 {
        stroke: #010101;
        stroke-miterlimit: 11.62;
        stroke-width: 1.16px;
      }

      .st1 {
        fill: #1c6ab4;
      }

      .st2 {
        fill: #961b1e;
      }
    </style>
  </defs>
  <g id="Layer_2">
    <polygon class="st0" points="65.16 73.18 67.13 106.7 97.97 106.7 99.93 73.18 92.16 73.18 92.16 78.66 89.74 78.66 89.74 73.18 75.3 73.18 75.3 78.66 72.88 78.66 72.88 73.18 65.16 73.18"/>
    <path class="st1" d="M102.47,70.82l-2.29,38.3h-35.29l-2.22-38.3h10.26v-2.16c0-12.75,19.28-12.75,19.28,0v2.16h10.26ZM75.3,70.82h14.51v-2.16c0-9.54-14.51-9.54-14.51,0v2.16h0ZM92.16,73.18v5.48h-2.42v-5.48h-14.44v5.48h-2.42v-5.48h-7.72l.52,8.97,1.44,24.55h30.84l1.96-33.52h-7.77,0Z"/>
  </g>
  <path class="st2" d="M86.94,19.97c-8.16-4.71-18.6-1.89-23.3,6.25-2.28,3.94-2.88,8.54-1.71,12.94,1.02,3.83,3.3,7.11,6.47,9.4l-4.1,7.1-11.77-5-7.96-13.9c-.78-1.35-1.87-2.3-3.32-2.89l-10.48-4.28c-.95-.38-1.93-.57-2.89-.57-2.89,0-5.62,1.66-6.9,4.46l-11.63,25.59c-1.35,2.94-.72,6.31,1.6,8.58l2.54,2.49,2.68,2.63,6.15,6.02,3.1,3.04,2.36,2.3,1.09,18.23c.24,4.01,3.57,7.15,7.59,7.15h.44c2.18,0,4.11-.85,5.59-2.46,1.48-1.6,2.16-3.61,1.98-5.79l-2-22.96c-.14-1.59-.77-2.97-1.88-4.13l-9.12-9.46,6.36-11.27,5.46,7.65c.21.29.5.51.83.63l16.81,6.12c3.76,1.37,6.87-.78,7.98-3.63.91-2.29.58-5.12-1.48-6.9l4.03-6.98c2.23,1,4.59,1.48,6.94,1.48,5.9,0,11.64-3.06,14.79-8.53,1.55-2.67,2.28-5.61,2.28-8.49,0-5.89-3.06-11.64-8.53-14.79h0v-.02h0ZM90.13,41.51c-3.73,6.46-12.03,8.69-18.5,4.96-3.14-1.81-5.37-4.73-6.31-8.23s-.45-7.15,1.35-10.27c2.5-4.33,7.06-6.77,11.75-6.77,2.3,0,4.62.58,6.75,1.8,6.47,3.74,8.69,12.04,4.96,18.5h0ZM24.56,85.59l.06.93c-.09.27-.21.56-.36.85l-8.85,17.57c-1.32,2.64-4.02,4.17-6.81,4.17-1.12,0-2.25-.24-3.32-.77l-.45-.23c-3.64-1.79-5.24-6.11-3.61-9.85l10.86-24.92,2.68,2.63,6.97,6.83,2.84,2.78h0v.02h-.01ZM53.08,24.51h0l1.38.8c-1.88,2.51-4.53,4.3-7.61,5.12-1.22.33-2.45.49-3.68.49-2.45,0-4.87-.64-7.05-1.91-3.27-1.88-5.61-4.94-6.59-8.59-.83-3.08-.6-6.27.63-9.16l1.31.77,19.92,11.5,1.68.96h0v.02ZM54.65,21.4l-21.6-12.47-1.31-.77-.93-.53c-.85-.49-1.13-1.56-.64-2.39.49-.84,1.56-1.13,2.39-.64l1.32.77,1.37.79,6.59-5.21c.57-.44,1.35-.5,1.98-.14l12.92,7.46c.63.36.96,1.06.86,1.78l-1.22,8.31,1.03.59,1.32.77c.85.48,1.13,1.56.64,2.39-.33.56-.92.87-1.52.87-.3,0-.6-.07-.87-.23l-.93-.53-1.38-.8h-.02v-.02Z"/>
</svg>