<?xml version="1.0" encoding="UTF-8"?>
<svg id="Layer_1" xmlns="http://www.w3.org/2000/svg" version="1.1" viewBox="0 0 40.49 43.53">
  <!-- Generator: Adobe Illustrator 30.5.1, SVG Export Plug-In . SVG Version: 2.1.4 Build 3)  -->
  <defs>
    <style>
      .st0 {
        fill: #961b1e;
        stroke: #010101;
        stroke-miterlimit: 11.62;
        stroke-width: .5px;
      }

      .st1 {
        fill: #1c6ab4;
      }

      .st1, .st2 {
        fill-rule: evenodd;
      }

      .st2 {
        fill: #eaae5c;
      }
    </style>
  </defs>
  <g id="Layer_2">
    <polygon class="st2" points="25.76 28.93 26.54 42.17 38.72 42.17 39.49 28.93 36.42 28.93 36.42 31.09 35.47 31.09 35.47 28.93 29.76 28.93 29.76 31.09 28.81 31.09 28.81 28.93 25.76 28.93"/>
    <path class="st1" d="M40.49,28l-.9,15.13h-13.94l-.88-15.13h4.05v-.85c0-5.04,7.62-5.04,7.62,0v.85h4.05ZM29.76,28h5.73v-.85c0-3.77-5.73-3.77-5.73,0v.85h0ZM36.42,28.93v2.16h-.96v-2.16h-5.7v2.16h-.96v-2.16h-3.05l.21,3.54.57,9.7h12.18l.77-13.24h-3.07,0Z"/>
  </g>
  <path class="st0" d="M34.36,7.91c-3.22-1.86-7.35-.75-9.2,2.47-.9,1.56-1.14,3.37-.68,5.11.4,1.51,1.3,2.81,2.56,3.71l-1.62,2.8-4.65-1.97-3.14-5.49c-.31-.53-.74-.91-1.31-1.14l-4.14-1.69c-.38-.15-.76-.23-1.14-.23-1.14,0-2.22.66-2.73,1.76l-4.59,10.11c-.53,1.16-.28,2.49.63,3.39l1,.98,1.06,1.04,2.43,2.38,1.22,1.2.93.91.43,7.2c.09,1.58,1.41,2.82,3,2.82h.17c.86,0,1.62-.34,2.21-.97.58-.63.85-1.43.78-2.29l-.79-9.07c-.06-.63-.3-1.17-.74-1.63l-3.6-3.74,2.51-4.45,2.16,3.02c.08.11.2.2.33.25l6.64,2.42c1.49.54,2.71-.31,3.15-1.43.36-.9.23-2.02-.58-2.73l1.59-2.76c.88.39,1.81.58,2.74.58,2.33,0,4.6-1.21,5.84-3.37.61-1.05.9-2.22.9-3.35,0-2.33-1.21-4.6-3.37-5.84h0s0-.01,0-.01ZM35.62,16.42c-1.47,2.55-4.75,3.43-7.31,1.96-1.24-.71-2.12-1.87-2.49-3.25s-.18-2.82.53-4.06c.99-1.71,2.79-2.67,4.64-2.67.91,0,1.82.23,2.67.71,2.56,1.48,3.43,4.76,1.96,7.31h0ZM9.72,33.83l.02.37c-.04.11-.08.22-.14.34l-3.5,6.94c-.52,1.04-1.59,1.65-2.69,1.65-.44,0-.89-.09-1.31-.3l-.18-.09c-1.44-.71-2.07-2.41-1.43-3.89l4.29-9.84,1.06,1.04,2.75,2.7,1.12,1.1h0s0,0,0,0ZM20.99,9.7h0l.55.32c-.74.99-1.79,1.7-3.01,2.02-.48.13-.97.19-1.45.19-.97,0-1.92-.25-2.78-.75-1.29-.74-2.22-1.95-2.6-3.39-.33-1.22-.24-2.48.25-3.62l.52.3,7.87,4.54.66.38h0ZM21.61,8.48L13.07,3.55l-.52-.3-.37-.21c-.34-.19-.45-.62-.25-.94.19-.33.62-.45.94-.25l.52.3.54.31,2.6-2.06c.23-.17.53-.2.78-.06l5.1,2.95c.25.14.38.42.34.7l-.48,3.28.41.23.52.3c.34.19.45.62.25.94-.13.22-.36.34-.6.34-.12,0-.24-.03-.34-.09l-.37-.21-.55-.32h0,0Z"/>
</svg>