<?xml version="1.0" encoding="UTF-8"?>
<svg id="Layer_1" xmlns="http://www.w3.org/2000/svg" version="1.1" viewBox="0 0 12.13 12.97">
  <!-- Generator: Adobe Illustrator 30.5.1, SVG Export Plug-In . SVG Version: 2.1.4 Build 3)  -->
  <defs>
    <style>
      .st0 {
        fill: #961b1e;
      }

      .st1 {
        fill: #1c6ab4;
      }

      .st1, .st2 {
        fill-rule: evenodd;
      }

      .st2 {
        fill: #eaae5c;
      }
    </style>
  </defs>
  <g id="Layer_2">
    <polygon class="st2" points="7.69 8.64 7.92 12.63 11.59 12.63 11.83 8.64 10.9 8.64 10.9 9.3 10.61 9.3 10.61 8.64 8.9 8.64 8.9 9.3 8.61 9.3 8.61 8.64 7.69 8.64"/>
    <path class="st1" d="M12.13,8.36l-.27,4.56h-4.2l-.26-4.56h1.22v-.26c0-1.52,2.3-1.52,2.3,0v.26h1.22ZM8.9,8.36h1.73v-.26c0-1.14-1.73-1.14-1.73,0v.26h0ZM10.9,8.64v.65h-.29v-.65h-1.72v.65h-.29v-.65h-.92l.06,1.07.17,2.92h3.67l.23-3.99h-.93,0Z"/>
  </g>
  <path class="st0" d="M10.28,2.31c-.97-.56-2.21-.23-2.77.74-.27.47-.34,1.02-.2,1.54.12.46.39.85.77,1.12l-.49.85-1.4-.6-.95-1.65c-.09-.16-.22-.27-.4-.34l-1.25-.51c-.11-.05-.23-.07-.34-.07-.34,0-.67.2-.82.53l-1.38,3.05c-.16.35-.09.75.19,1.02l.3.3.32.31.73.72.37.36.28.27.13,2.17c.03.48.43.85.9.85h.05c.26,0,.49-.1.67-.29.18-.19.26-.43.24-.69l-.24-2.73c-.02-.19-.09-.35-.22-.49l-1.09-1.13.76-1.34.65.91s.06.06.1.08l2,.73c.45.16.82-.09.95-.43.11-.27.07-.61-.18-.82l.48-.83c.27.12.55.18.83.18.7,0,1.39-.36,1.76-1.02.18-.32.27-.67.27-1.01,0-.7-.36-1.39-1.02-1.76h0s0,0,0,0ZM10.66,4.87c-.44.77-1.43,1.03-2.2.59-.37-.22-.64-.56-.75-.98s-.05-.85.16-1.22c.3-.52.84-.81,1.4-.81.27,0,.55.07.8.21.77.45,1.03,1.43.59,2.2h0ZM2.85,10.12v.11s-.02.07-.04.1l-1.05,2.09c-.16.31-.48.5-.81.5-.13,0-.27-.03-.4-.09l-.05-.03c-.43-.21-.62-.73-.43-1.17l1.29-2.97.32.31.83.81.34.33h0s0,0,0,0ZM6.25,2.85h0l.16.1c-.22.3-.54.51-.91.61-.15.04-.29.06-.44.06-.29,0-.58-.08-.84-.23-.39-.22-.67-.59-.78-1.02-.1-.37-.07-.75.08-1.09l.16.09,2.37,1.37.2.11h0ZM6.44,2.48L3.87.99l-.16-.09-.11-.06c-.1-.06-.13-.19-.08-.28.06-.1.19-.13.28-.08l.16.09.16.09L4.91.04c.07-.05.16-.06.24-.02l1.54.89c.08.04.11.13.1.21l-.15.99.12.07.16.09c.1.06.13.19.08.28-.04.07-.11.1-.18.1-.04,0-.07,0-.1-.03l-.11-.06-.16-.1h0,0Z"/>
</svg>