<svg xmlns="http://www.w3.org/2000/svg" viewBox="0 0 96 96" role="img" aria-label="ChatGPT">
  <rect width="96" height="96" rx="20" fill="#10a37f"/>
  <g fill="none" stroke="#fff" stroke-width="7" stroke-linecap="round" stroke-linejoin="round">
    <path d="M48 18c10 0 18 8 18 18 0 3-.7 5.8-2 8.3"/>
    <path d="M63 28c8 5 11 16 6 24-2 3-4.2 5.2-7 6.8"/>
    <path d="M70 52c0 10-8 18-18 18-3 0-5.8-.7-8.3-2"/>
    <path d="M52 78c-10 0-18-8-18-18 0-3 .7-5.8 2-8.3"/>
    <path d="M33 68c-8-5-11-16-6-24 2-3 4.2-5.2 7-6.8"/>
    <path d="M26 44c0-10 8-18 18-18 3 0 5.8.7 8.3 2"/>
    <path d="M36 44l24 14M60 38L36 52"/>
  </g>
</svg>
