<svg xmlns="http://www.w3.org/2000/svg" viewBox="0 0 96 96" role="img" aria-label="Meta AI">
  <rect width="96" height="96" rx="20" fill="#1877f2"/>
  <path d="M20 62c5-24 14-36 26-36 8 0 14 8 20 19 4 8 7 13 10 13 3 0 5-3 5-9 0-9-4-15-11-15-4 0-8 2-12 5" fill="none" stroke="#fff" stroke-width="8" stroke-linecap="round"/>
  <path d="M76 62c-5-24-14-36-26-36-8 0-14 8-20 19-4 8-7 13-10 13-3 0-5-3-5-9 0-9 4-15 11-15 4 0 8 2 12 5" fill="none" stroke="#fff" stroke-width="8" stroke-linecap="round"/>
</svg>
